<svg width="51" height="51" viewBox="0 0 51 51" fill="none" xmlns="http://www.w3.org/2000/svg">
<path fill-rule="evenodd" clip-rule="evenodd" d="M25.31 0C39.29 0 50.62 11.33 50.62 25.31C50.62 39.29 39.29 50.62 25.31 50.62C11.33 50.62 0 39.29 0 25.31C0 11.34 11.33 0 25.31 0ZM30.26 16.13C31.39 14.98 33.23 14.97 34.37 16.12C35.51 17.26 35.51 19.12 34.38 20.27L29.41 25.31L34.38 30.36C35.5 31.5 35.49 33.35 34.35 34.49C33.21 35.63 31.37 35.63 30.25 34.48L25.31 29.47L20.36 34.49C19.23 35.64 17.39 35.65 16.25 34.5C15.11 33.36 15.11 31.5 16.24 30.35L21.21 25.31L16.23 20.26C15.11 19.12 15.12 17.27 16.26 16.13C17.4 14.99 19.24 14.99 20.36 16.14L25.3 21.15L30.26 16.13Z" fill="#FF4141"/>
</svg>