<svg width="51" height="51" viewBox="0 0 51 51" fill="none" xmlns="http://www.w3.org/2000/svg">
<path fill-rule="evenodd" clip-rule="evenodd" d="M25.31 0C39.29 0 50.62 11.33 50.62 25.31C50.62 39.29 39.29 50.62 25.31 50.62C11.33 50.61 0 39.28 0 25.31C0 11.33 11.33 0 25.31 0ZM14.11 25.98C14.45 24.01 16.7 22.92 18.47 23.98C18.63 24.08 18.78 24.19 18.93 24.32L18.94 24.33C19.74 25.09 20.63 25.89 21.51 26.67L22.27 27.35L31.27 17.91C31.81 17.35 32.2 16.98 33.01 16.8C35.77 16.19 37.71 19.56 35.75 21.63L24.54 33.41C23.48 34.54 21.6 34.64 20.46 33.56C19.81 32.96 19.1 32.34 18.39 31.72C17.15 30.64 15.89 29.54 14.86 28.46C14.23 27.84 13.97 26.83 14.11 25.98Z" fill="#6BBE66"/>
</svg>