<svg width="37" height="37" viewBox="0 0 37 37" fill="none" xmlns="http://www.w3.org/2000/svg">
<path d="M37 0H0V37H37V0Z" fill="#FABB39"/>
<path d="M7.04869 10.4041C8.5163 10.4041 9.70603 9.21442 9.70603 7.74681C9.70603 6.27921 8.5163 5.08948 7.04869 5.08948C5.58109 5.08948 4.39136 6.27921 4.39136 7.74681C4.39136 9.21442 5.58109 10.4041 7.04869 10.4041Z" fill="#891246"/>
<path d="M14.8856 10.4041C16.3532 10.4041 17.5429 9.21442 17.5429 7.74681C17.5429 6.27921 16.3532 5.08948 14.8856 5.08948C13.418 5.08948 12.2283 6.27921 12.2283 7.74681C12.2283 9.21442 13.418 10.4041 14.8856 10.4041Z" fill="#891246"/>
<path d="M22.745 10.4041C24.2126 10.4041 25.4023 9.21442 25.4023 7.74681C25.4023 6.27921 24.2126 5.08948 22.745 5.08948C21.2774 5.08948 20.0876 6.27921 20.0876 7.74681C20.0876 9.21442 21.2774 10.4041 22.745 10.4041Z" fill="#891246"/>
<path d="M30.6044 10.4041C32.072 10.4041 33.2617 9.21442 33.2617 7.74681C33.2617 6.27921 32.072 5.08948 30.6044 5.08948C29.1367 5.08948 27.947 6.27921 27.947 7.74681C27.947 9.21442 29.1367 10.4041 30.6044 10.4041Z" fill="#891246"/>
<path d="M7.04869 16.9799C8.5163 16.9799 9.70603 15.7902 9.70603 14.3226C9.70603 12.855 8.5163 11.6653 7.04869 11.6653C5.58109 11.6653 4.39136 12.855 4.39136 14.3226C4.39136 15.7902 5.58109 16.9799 7.04869 16.9799Z" fill="#891246"/>
<path d="M14.8856 16.9799C16.3532 16.9799 17.5429 15.7902 17.5429 14.3226C17.5429 12.855 16.3532 11.6653 14.8856 11.6653C13.418 11.6653 12.2283 12.855 12.2283 14.3226C12.2283 15.7902 13.418 16.9799 14.8856 16.9799Z" fill="#891246"/>
<path d="M22.745 16.9799C24.2126 16.9799 25.4023 15.7902 25.4023 14.3226C25.4023 12.855 24.2126 11.6653 22.745 11.6653C21.2774 11.6653 20.0876 12.855 20.0876 14.3226C20.0876 15.7902 21.2774 16.9799 22.745 16.9799Z" fill="#891246"/>
<path d="M30.6044 16.9799C32.072 16.9799 33.2617 15.7902 33.2617 14.3226C33.2617 12.855 32.072 11.6653 30.6044 11.6653C29.1367 11.6653 27.947 12.855 27.947 14.3226C27.947 15.7902 29.1367 16.9799 30.6044 16.9799Z" fill="#891246"/>
<path d="M7.04869 23.5782C8.5163 23.5782 9.70603 22.3885 9.70603 20.9209C9.70603 19.4533 8.5163 18.2635 7.04869 18.2635C5.58109 18.2635 4.39136 19.4533 4.39136 20.9209C4.39136 22.3885 5.58109 23.5782 7.04869 23.5782Z" fill="#891246"/>
<path d="M14.8856 23.5782C16.3532 23.5782 17.5429 22.3885 17.5429 20.9209C17.5429 19.4533 16.3532 18.2635 14.8856 18.2635C13.418 18.2635 12.2283 19.4533 12.2283 20.9209C12.2283 22.3885 13.418 23.5782 14.8856 23.5782Z" fill="#891246"/>
<path d="M22.745 23.5782C24.2126 23.5782 25.4023 22.3885 25.4023 20.9209C25.4023 19.4533 24.2126 18.2635 22.745 18.2635C21.2774 18.2635 20.0876 19.4533 20.0876 20.9209C20.0876 22.3885 21.2774 23.5782 22.745 23.5782Z" fill="#891246"/>
<path d="M30.6044 23.5782C32.072 23.5782 33.2617 22.3885 33.2617 20.9209C33.2617 19.4533 32.072 18.2635 30.6044 18.2635C29.1367 18.2635 27.947 19.4533 27.947 20.9209C27.947 22.3885 29.1367 23.5782 30.6044 23.5782Z" fill="#891246"/>
<path d="M7.04869 30.154C8.5163 30.154 9.70603 28.9643 9.70603 27.4967C9.70603 26.0291 8.5163 24.8393 7.04869 24.8393C5.58109 24.8393 4.39136 26.0291 4.39136 27.4967C4.39136 28.9643 5.58109 30.154 7.04869 30.154Z" fill="#891246"/>
<path d="M14.8856 30.154C16.3532 30.154 17.5429 28.9643 17.5429 27.4967C17.5429 26.0291 16.3532 24.8393 14.8856 24.8393C13.418 24.8393 12.2283 26.0291 12.2283 27.4967C12.2283 28.9643 13.418 30.154 14.8856 30.154Z" fill="#891246"/>
<path d="M22.745 30.154C24.2126 30.154 25.4023 28.9643 25.4023 27.4967C25.4023 26.0291 24.2126 24.8393 22.745 24.8393C21.2774 24.8393 20.0876 26.0291 20.0876 27.4967C20.0876 28.9643 21.2774 30.154 22.745 30.154Z" fill="#891246"/>
<path d="M30.6044 30.154C32.072 30.154 33.2617 28.9643 33.2617 27.4967C33.2617 26.0291 32.072 24.8393 30.6044 24.8393C29.1367 24.8393 27.947 26.0291 27.947 27.4967C27.947 28.9643 29.1367 30.154 30.6044 30.154Z" fill="#891246"/>
</svg>