<svg width="538" height="116" viewBox="0 0 538 116" fill="none" xmlns="http://www.w3.org/2000/svg">
<g clip-path="url(#clip0_549_58)">
<path d="M65.3818 56.0293C68.76 39.1252 72.1842 22.2211 75.4638 5.2841C75.8384 3.33868 76.5285 2.83261 78.4016 2.83918C94.7011 2.90491 110.994 2.92462 127.293 2.81947C129.416 2.80632 129.765 3.46356 129.758 5.39583C129.699 40.203 129.692 75.0102 129.771 109.817C129.771 112.223 128.989 112.663 126.807 112.637C117.402 112.525 107.997 112.525 98.5919 112.637C96.4822 112.663 95.825 112.157 95.8315 109.942C95.9235 92.7556 95.8841 75.5755 95.8841 58.3887V44.6985C94.379 45.2243 94.6551 46.7425 94.4382 47.6495C89.4629 68.3196 84.5731 89.0159 79.7424 109.719C79.2626 111.789 78.5857 112.736 76.1342 112.663C68.5957 112.44 61.0375 112.473 53.499 112.65C51.2775 112.703 50.502 111.875 50.0354 109.923C44.7315 87.662 39.3816 65.408 34.0251 43.1606C34.0119 43.108 33.8279 43.1014 33.4664 43.0029C32.7895 47.3078 33.3218 51.5929 33.4664 55.8387C34.0645 73.8864 33.7819 91.9341 33.9397 109.975C33.9594 112.262 33.1773 112.644 31.1398 112.624C21.6231 112.532 12.1063 112.532 2.59608 112.624C0.624374 112.65 0 112.197 0 110.113C0.0657236 75.1943 0.0657236 40.2819 0 5.36297C0 3.3584 0.460065 2.81289 2.51064 2.82604C18.6984 2.91805 34.8861 2.9312 51.0738 2.81289C53.2361 2.79975 53.8473 3.65416 54.2088 5.46155C57.4818 21.7413 60.7943 38.0144 64.1133 54.2876C64.2579 54.9974 64.2776 55.8715 65.3884 56.0293H65.3818Z" fill="black"/>
<path d="M439.008 86.9457C442.57 87.2875 445.882 87.8067 449.228 87.3532C456.07 86.4265 461.886 83.4953 466.539 78.4543C467.762 77.1332 468.984 76.7586 470.529 76.9558C472.435 77.1989 471.469 78.8486 471.778 79.8542C473.033 83.9159 475.189 87.1101 479.533 88.3391C485.658 90.0676 491.777 90.1136 497.876 88.2734C500.841 87.3729 502.76 85.5721 502.97 82.2597C503.187 78.8683 501.623 76.7454 498.606 75.4113C492.625 72.7757 486.158 72.572 479.855 71.5467C477.607 71.1787 474.637 71.573 473.296 70.2717C471.666 68.6943 474.065 66.2428 474.439 64.1002C478.146 43.141 461.433 28.4255 446.218 28.8461C444.371 28.8987 442.524 28.8527 440.598 28.8527C442.688 16.7004 449.688 8.43894 460.94 4.54153C478.652 -1.59048 496.608 -1.70878 514.189 5.3565C527.012 10.5092 532.789 21.025 534.708 34.1303C534.912 35.5302 534.629 36.3123 532.874 36.2992C523.469 36.2203 514.071 36.2269 504.666 36.2992C503.233 36.3123 502.865 35.6879 502.576 34.4852C501.274 29.0893 497.548 26.8087 492.264 26.1514C488.09 25.6388 484.061 25.7308 480 26.8218C476.7 27.7091 474.545 29.4968 474.361 33.0458C474.203 35.964 476.214 38.4878 479.75 39.5853C484.975 41.2087 490.45 41.5045 495.826 42.2603C505.093 43.5682 514.248 45.2573 522.608 49.7396C534.852 56.312 539.092 67.5244 537.771 80.7677C535.976 98.8023 523.929 109.18 507.814 112.92C491.679 116.666 475.609 116.58 460.046 110.278C449.504 106.006 442.366 98.3619 439.008 86.9326V86.9457Z" fill="black"/>
<path d="M427.624 28.8525C411.068 28.8525 394.985 28.8525 378.909 28.8525C367.474 28.8525 357.102 35.9243 352.436 46.9002C348.065 57.1793 350.51 70.1597 358.318 78.1386C366.968 86.9784 378.443 89.8374 388.663 85.7296C392.475 84.1983 395.511 81.5102 398.653 79.0258C409.99 70.0611 419.283 72.8018 428.623 80.6689C430.049 81.8717 429.155 82.7392 428.695 83.7119C421.538 98.9072 409.721 108.49 393.612 112.998C381.111 116.501 368.63 116.462 356.287 112.637C339.357 107.392 327.763 96.252 322.17 79.4333C317.142 64.3103 317.228 49.0362 322.854 33.9789C328.434 19.0399 338.982 9.08281 354 4.16669C371.792 -1.66299 389.491 -1.57098 406.625 6.79563C416.175 11.462 422.892 18.9742 427.63 28.8459L427.624 28.8525Z" fill="black"/>
<path d="M191.906 103.265C188.389 108.161 184.623 111.474 179.576 113.051C168.896 116.39 158.321 116.475 148.232 111.244C139.623 106.781 136.632 99.0191 136.921 89.693C137.204 80.6297 141.502 74.2742 149.724 70.5148C156.474 67.4258 163.704 66.6437 170.966 65.9076C176.362 65.3621 181.824 65.2964 187.128 63.9622C189.901 63.2655 191.518 61.5238 191.492 58.6517C191.459 55.7073 189.927 53.821 186.957 53.1244C184.15 52.4671 181.364 52.3357 178.537 52.9206C175.619 53.5253 173.556 55.0566 173.043 58.1259C172.734 59.9859 171.827 60.4525 169.967 60.4263C161.219 60.308 152.471 60.3145 143.724 60.4131C141.542 60.4394 140.668 60.0976 140.95 57.5541C142.205 46.1182 148.009 38.1 158.958 34.7152C175.146 29.7202 191.551 29.6742 207.699 35.0307C218.3 38.5469 223.216 45.8751 223.236 56.9823C223.262 70.4425 223.275 83.9027 223.223 97.3629C223.21 101.858 223.453 106.295 225.195 110.488C225.904 112.19 225.398 112.598 223.749 112.591C214.455 112.558 205.155 112.538 195.862 112.617C194.311 112.63 193.772 111.901 193.332 110.665C192.596 108.595 192.261 106.446 191.906 103.258V103.265Z" fill="black"/>
<path d="M247.16 87.432C251.426 87.432 255.691 87.4648 259.957 87.4122C261.383 87.3925 262.145 87.5371 262.573 89.3182C263.342 92.565 265.78 94.2803 269.112 94.8784C272.286 95.4502 275.415 95.4108 278.543 94.8127C280.995 94.3461 283.44 93.4719 283.545 90.521C283.644 87.616 281.488 86.3804 278.911 85.9663C271.82 84.8424 264.702 83.896 257.63 82.6801C251.367 81.6023 245.36 79.6766 240.45 75.4243C228.699 65.2371 230.493 45.6581 243.828 37.5478C250.315 33.5978 257.492 32.1387 264.919 31.6195C275.73 30.8637 286.443 31.1923 296.584 35.6878C304.866 39.3617 309.65 45.8289 311.412 54.6556C311.878 57.0019 311.642 58.2178 308.664 58.1324C301.014 57.9221 293.351 58.0141 285.694 58.0995C283.926 58.1192 283.006 57.8432 282.677 55.8189C282.382 53.9852 281.107 52.5525 279.201 51.7901C274.639 49.9695 270.058 50.1075 265.484 51.5929C263.788 52.145 262.921 53.3806 262.934 55.3194C262.947 57.6592 264.472 58.8356 266.253 59.23C270.387 60.1435 274.6 60.6956 278.793 61.3266C285.234 62.2927 291.728 62.9565 297.912 65.2305C307.002 68.5759 313.265 74.3727 314.133 84.4875C315.092 95.6934 310.728 104.303 300.666 109.62C293.535 113.386 285.773 114.819 277.774 115.102C267.712 115.456 257.748 115.213 248.271 111.086C238.59 106.866 233.45 99.4528 232.044 89.1211C231.801 87.3597 232.504 87.4057 233.713 87.4122C238.196 87.4385 242.685 87.4254 247.167 87.4254L247.16 87.432Z" fill="black"/>
<path d="M161.234 12.1654C161.234 15.445 161.247 18.6589 161.227 21.8728C161.221 23.0953 161.694 24.4886 159.472 24.5149C157.376 24.5346 157.56 23.3647 157.566 22.0043C157.593 17.2984 157.533 12.5992 157.612 7.8934C157.626 6.97327 156.837 5.46163 158.559 5.24474C160.005 5.06729 161.49 4.83726 162.509 6.62494C164.638 10.3712 167.011 13.9794 169.666 18.258C170.363 14.262 169.922 10.9364 170.028 7.65022C170.074 6.30946 169.817 5.10015 171.934 5.11987C174.142 5.14616 173.695 6.52635 173.701 7.76195C173.721 12.4678 173.748 17.167 173.675 21.8728C173.662 22.7798 174.424 24.3177 172.604 24.3966C171.296 24.4557 169.87 24.9224 168.904 23.2201C167.083 20.0063 165.039 16.9238 163.061 13.8019C162.686 13.2039 162.588 12.3232 161.24 12.1589L161.234 12.1654Z" fill="black"/>
<path d="M302.559 4.84399C308.284 4.84399 312.181 8.88599 312.208 14.8471C312.234 20.7162 308.159 24.9685 302.559 24.9225C297.072 24.8765 293.227 20.8148 293.161 14.9851C293.095 8.8597 296.815 4.85057 302.559 4.84399Z" fill="black"/>
<path d="M179.537 18.5472C181.627 18.1068 182.915 18.2448 184.065 20.2165C185.386 22.4906 187.937 22.392 190.171 21.4719C192.215 20.6306 192.287 18.7115 190.401 17.4496C188.758 16.352 186.76 16.1943 184.9 15.675C181.594 14.7549 179.807 12.5335 180.122 9.98338C180.484 7.08498 182.968 5.04097 186.333 4.83723C189.258 4.65978 192.011 4.95553 193.957 7.53847C194.621 8.41916 195.363 9.68763 194.325 10.3514C193.464 10.8969 191.847 11.3636 190.993 9.75335C190.02 7.90652 188.357 7.71592 186.51 7.82765C185.281 7.89995 184.414 8.32058 184.138 9.59562C183.803 11.1204 184.677 11.7908 185.971 12.1523C187.43 12.5597 188.903 12.9344 190.355 13.3879C193.056 14.2291 195.501 15.3596 195.554 18.7706C195.6 21.7939 193.72 23.8905 190.197 24.7778C184.92 26.1054 180.543 23.5947 179.55 18.5406L179.537 18.5472Z" fill="black"/>
<path d="M267.575 12.8622C267.575 14.0649 267.575 15.2676 267.575 16.4704C267.561 23.5291 260.746 27.4462 254.594 23.884C252.708 22.793 251.479 21.1433 251.42 18.8956C251.315 14.8602 251.361 10.8182 251.242 6.77616C251.203 5.41568 251.755 5.09364 252.971 5.1725C254.068 5.2448 255.166 5.02791 255.12 6.75644C255.041 10.0295 255.061 13.3091 255.107 16.5887C255.159 20.1575 256.599 21.7808 259.55 21.7348C262.501 21.6888 263.625 20.4072 263.717 16.7333C263.795 13.5654 263.795 10.3975 263.703 7.22965C263.657 5.75087 263.94 5.10021 265.642 5.1265C267.318 5.15936 267.667 5.81659 267.594 7.2888C267.502 9.14221 267.575 11.0022 267.575 12.8622Z" fill="black"/>
<path d="M374.678 55.7532C374.658 52.0266 377.727 48.8916 381.434 48.8522C385.397 48.8128 388.46 51.8098 388.526 55.7729C388.585 59.6769 385.476 62.6804 381.408 62.6607C377.655 62.6344 374.704 59.6046 374.678 55.7532Z" fill="black"/>
<path d="M443.502 48.8589C447.38 48.8326 450.692 52.0465 450.699 55.8321C450.699 59.3944 447.406 62.6148 443.68 62.6674C439.993 62.7265 436.654 59.6112 436.555 56.0227C436.45 52.1845 439.651 48.8786 443.502 48.8523V48.8589Z" fill="black"/>
<path d="M205.485 16.2795C205.485 15.3002 205.36 14.2947 205.505 13.3417C206.051 9.84518 205.314 7.64344 201.095 8.50442C200.043 8.72131 199.485 8.28753 199.557 7.08479C199.616 6.04636 199.524 5.14595 201.023 5.15909C205.38 5.21167 209.738 5.19852 214.102 5.15909C215.429 5.14595 215.377 5.97406 215.396 6.89419C215.423 7.91291 215.173 8.53728 213.964 8.53071C212.57 8.53071 210.592 8.15608 209.915 8.89876C208.778 10.1475 209.547 12.2178 209.501 13.9398C209.422 16.7724 209.402 19.6117 209.508 22.4444C209.567 23.9692 209.146 24.5475 207.529 24.5081C206.024 24.4752 205.347 24.1335 205.452 22.4904C205.584 20.4267 205.485 18.3498 205.485 16.2795Z" fill="black"/>
<path d="M236.157 16.3849C236.157 15.4056 236.065 14.4132 236.177 13.4405C236.551 10.1872 236.328 7.55164 231.878 8.49806C230.557 8.78067 230.255 7.99199 230.222 6.78925C230.189 5.45506 230.741 5.13958 231.957 5.1593C235.993 5.21188 240.028 5.21845 244.057 5.1593C245.411 5.13958 245.956 5.50764 245.983 6.98642C246.015 8.7741 244.898 8.69523 243.86 8.49149C240.291 7.7751 239.739 9.56278 239.969 12.5926C240.212 15.7408 239.989 18.9152 240.041 22.0765C240.061 23.5027 240.1 24.5675 238.076 24.5215C236.025 24.482 236.137 23.3121 236.157 21.9451C236.183 20.0917 236.157 18.2383 236.157 16.3783V16.3849Z" fill="black"/>
<path d="M278.826 16.2665C278.826 15.3924 278.76 14.5183 278.839 13.6507C279.115 10.4171 279.148 7.47929 274.429 8.49144C273.003 8.79377 272.937 7.75533 272.904 6.67089C272.871 5.54045 273.279 5.14611 274.416 5.15925C278.668 5.20526 282.92 5.21183 287.173 5.15925C288.684 5.13954 288.566 6.06624 288.625 7.09153C288.704 8.31398 288.119 8.59002 287.068 8.51773C286.305 8.46515 285.53 8.60317 284.78 8.49144C282.947 8.22197 282.631 9.12896 282.671 10.726C282.763 14.6497 282.664 18.58 282.723 22.5103C282.743 23.8182 282.506 24.5148 280.962 24.4951C279.477 24.4754 278.734 24.1271 278.813 22.4774C278.918 20.4071 278.839 18.3303 278.839 16.26L278.826 16.2665Z" fill="black"/>
<path d="M150.737 14.8796C150.737 17.3902 150.659 19.9074 150.77 22.4181C150.836 23.9691 150.356 24.5015 148.753 24.5081C147.195 24.5081 146.695 24.0743 146.722 22.4838C146.814 17.3508 146.794 12.2112 146.735 7.0716C146.722 5.71112 147.037 5.07361 148.542 5.1459C149.863 5.20505 150.862 5.19191 150.777 7.01245C150.645 9.62825 150.744 12.2572 150.744 14.8796H150.737Z" fill="black"/>
<path d="M224.912 14.998C224.912 17.4035 224.827 19.809 224.945 22.2079C225.024 23.851 224.616 24.5213 222.809 24.5148C221.08 24.5148 220.89 23.7852 220.909 22.359C220.975 17.3312 220.975 12.3033 220.909 7.27547C220.89 5.8427 221.126 5.13289 222.829 5.11317C224.669 5.09345 225.011 5.84927 224.945 7.45293C224.84 9.96357 224.919 12.4808 224.919 14.9914L224.912 14.998Z" fill="black"/>
<path d="M191.374 77.429C191.722 81.07 191.69 84.3102 190.881 87.4518C189.008 94.6814 177.828 98.4408 171.788 93.9059C169.35 92.0722 168.686 89.4695 169.199 86.5974C169.725 83.653 171.907 82.2334 174.555 81.4841C175.804 81.1292 177.125 81.0175 178.427 80.8663C182.817 80.3471 187.319 80.3339 191.374 77.4355V77.429Z" fill="white"/>
<path d="M297.11 14.7876C297.129 10.5945 299.147 8.07727 302.532 8.02469C306.022 7.97211 308.237 10.6405 308.237 14.8797C308.237 18.9677 305.792 21.8464 302.433 21.7346C299.246 21.6229 297.09 18.8165 297.11 14.7876Z" fill="white"/>
</g>
<defs>
<clipPath id="clip0_549_58">
<rect width="538" height="115.575" fill="white"/>
</clipPath>
</defs>
</svg>
