<svg width="145" height="70" viewBox="0 0 145 70" fill="none" xmlns="http://www.w3.org/2000/svg">
<path d="M130.656 27.6543L111.809 26.9341L125.621 13.251L117.276 3.60081L103.464 17.2839L104.184 -2.88068L91.9542 -3.31277L91.2348 16.8518L78.43 2.01644L69.3659 10.9465L82.3146 25.7819L63.467 25.0617L63.0354 38.1687L81.7391 38.8889L68.071 52.716L76.4157 62.2222L90.0838 48.5391L89.5084 68.7037L101.738 69.1358L102.457 48.9712L115.262 63.8066L124.182 54.8765L111.377 40.0411L130.225 40.7613L130.656 27.6543Z" stroke="#E94591" stroke-width="1.058" stroke-miterlimit="10"/>
<path d="M14.4059 37.4485L0.306152 52.572L13.2549 53.7243L14.4059 67.6955L27.9301 53.1481L27.0668 38.8889L14.4059 37.4485Z" fill="#51B791"/>
<path d="M58.2876 6.1934C73.9699 6.1934 86.6309 19.8765 86.6309 36.7284C102.313 36.7284 115.118 23.1893 115.118 6.33744C115.118 -10.5144 102.457 -24.1975 86.7747 -24.1975C86.7747 -7.34569 73.9699 6.1934 58.2876 6.1934Z" fill="#0CAED9"/>
<path d="M58.2875 6.1934C42.6052 6.1934 29.9442 -7.48973 29.9442 -24.3416C14.2619 -24.3416 1.45703 -10.8025 1.45703 6.04936C1.45703 22.9012 14.118 36.5843 29.8003 36.5843C29.9442 19.7325 42.6052 6.04936 58.2875 6.1934Z" fill="#0CAED9"/>
<path d="M58.2874 6.19341C58.2874 -10.6584 71.0922 -24.1975 86.7746 -24.1975C86.7746 -41.0494 74.1136 -54.7325 58.4313 -54.7325C42.7489 -54.7325 29.9441 -41.1934 29.9441 -24.3416C45.6264 -24.3416 58.2874 -10.6584 58.2874 6.19341Z" fill="#0E68B0"/>
<path d="M58.2876 6.19341C73.9699 6.19341 86.7747 -7.34569 86.7747 -24.1975C71.0924 -24.1975 58.2876 -10.6584 58.2876 6.19341Z" fill="white"/>
<path d="M58.2874 6.19343C58.2874 -10.6584 45.6264 -24.3416 29.9441 -24.3416C29.9441 -7.63373 42.6051 6.04939 58.2874 6.19343Z" fill="white"/>
<path d="M86.631 36.5844C70.9487 36.5844 58.2877 22.9012 58.2877 6.04938C58.2877 22.9012 45.4829 36.4403 29.8005 36.4403C29.8005 53.2922 42.4615 66.9753 58.1438 66.9753C73.8262 66.9753 86.631 53.4362 86.631 36.5844Z" fill="#0E68B0"/>
<path d="M58.2876 6.19342C58.2876 23.0453 70.9486 36.7284 86.6309 36.7284C86.6309 19.8765 73.9699 6.19342 58.2876 6.19342Z" fill="white"/>
<path d="M58.2877 6.19339C42.6054 6.19339 29.8005 19.7325 29.8005 36.5843C45.4829 36.5843 58.2877 22.9012 58.2877 6.19339Z" fill="white"/>
<path d="M106.054 5.90533C106.054 -1.15228 111.377 -6.9136 117.996 -6.9136C124.614 -6.9136 129.937 -1.15228 129.937 5.90533C129.937 12.9629 124.614 18.7243 117.996 18.7243C111.377 18.7243 106.054 12.9629 106.054 5.90533ZM144.325 6.04936C144.325 -9.5062 132.671 -22.1811 117.996 -22.1811C103.464 -22.1811 91.6666 -9.65023 91.5227 5.90533C91.5227 21.4609 103.177 34.1358 117.852 34.1358C132.527 34.2798 144.325 21.6049 144.325 6.04936Z" fill="#FCC700"/>
</svg>